<svg width="400" height="400" viewBox="0 0 400 400" xmlns="http://www.w3.org/2000/svg">
  <!-- Gradient for the color transition -->
  <defs>
    <linearGradient id="grad1" x1="0%" y1="0%" x2="100%" y2="100%">
      <stop offset="0%" style="stop-color: #FFD700; stop-opacity: 1" />
      <stop offset="100%" style="stop-color: #FF8C00; stop-opacity: 1" />
    </linearGradient>
  </defs>

  <!-- Outer rectangle representing the chip -->
  <rect x="100" y="100" width="200" height="200" rx="30" ry="30" fill="none" stroke="url(#grad1)" stroke-width="10"/>
  
  <!-- Inner rectangle for the central area -->
  <rect x="140" y="140" width="120" height="120" rx="20" ry="20" fill="none" stroke="url(#grad1)" stroke-width="6"/>

  <!-- Brain icon in the center -->
  <path d="M200 160 Q190 120 160 130 Q130 140 130 170 Q130 200 160 210 Q190 220 200 180 M200 160 Q210 120 240 130 Q270 140 270 170 Q270 200 240 210 Q210 220 200 180" fill="none" stroke="url(#grad1)" stroke-width="4"/>

  <!-- Lines connecting to the chip -->
  <line x1="100" y1="180" x2="40" y2="180" stroke="url(#grad1)" stroke-width="10"/>
  <line x1="100" y1="220" x2="40" y2="220" stroke="url(#grad1)" stroke-width="10"/>
  <line x1="180" y1="100" x2="180" y2="40" stroke="url(#grad1)" stroke-width="10"/>
  <line x1="220" y1="100" x2="220" y2="40" stroke="url(#grad1)" stroke-width="10"/>
  <line x1="300" y1="180" x2="360" y2="180" stroke="url(#grad1)" stroke-width="10"/>
  <line x1="300" y1="220" x2="360" y2="220" stroke="url(#grad1)" stroke-width="10"/>
  <line x1="180" y1="300" x2="180" y2="360" stroke="url(#grad1)" stroke-width="10"/>
  <line x1="220" y1="300" x2="220" y2="360" stroke="url(#grad1)" stroke-width="10"/>

  <!-- Circles at the ends of the lines -->
  <circle cx="40" cy="180" r="10" fill="url(#grad1)"/>
  <circle cx="40" cy="220" r="10" fill="url(#grad1)"/>
  <circle cx="180" cy="40" r="10" fill="url(#grad1)"/>
  <circle cx="220" cy="40" r="10" fill="url(#grad1)"/>
  <circle cx="360" cy="180" r="10" fill="url(#grad1)"/>
  <circle cx="360" cy="220" r="10" fill="url(#grad1)"/>
  <circle cx="180" cy="360" r="10" fill="url(#grad1)"/>
  <circle cx="220" cy="360" r="10" fill="url(#grad1)"/>
</svg>